<svg version="1.1" id="Layer_1" xmlns="http://www.w3.org/2000/svg" xmlns:xlink="http://www.w3.org/1999/xlink" x="0px" y="0px"
	 width="100%" viewBox="0 0 1254 1254" enable-background="new 0 0 1254 1254" xml:space="preserve">
<path fill="#F0F3F7" opacity="1.000000" stroke="none" 
	d="
M471.056763,169.083618 
	C524.273254,147.386002 575.004517,121.609650 623.565308,91.618095 
	C628.145142,88.789589 630.826660,90.827835 634.174316,92.880379 
	C673.290405,116.863831 713.894897,137.999130 756.069336,156.061325 
	C813.228455,180.541122 871.857971,200.670486 932.547485,214.474319 
	C973.520081,223.793503 1014.888000,230.531128 1056.970581,232.132889 
	C1057.446899,232.151001 1057.917358,232.321838 1058.717041,232.490051 
	C1058.829834,233.394745 1059.046875,234.335587 1059.050293,235.277191 
	C1059.218506,281.927460 1060.274780,328.597717 1059.249390,375.222168 
	C1058.338257,416.652039 1056.128784,458.115631 1052.680664,499.413086 
	C1047.271240,564.197937 1036.327515,628.114197 1017.986694,690.633240 
	C994.090210,772.090576 957.694519,847.396301 907.552124,915.979309 
	C870.980042,966.001343 828.398987,1010.369629 781.356873,1050.594482 
	C734.905945,1090.313721 685.233948,1125.565674 633.598389,1158.152344 
	C629.916748,1160.475830 627.333374,1160.668701 623.459412,1158.206055 
	C571.660706,1125.277466 521.455627,1090.153320 474.618530,1050.402954 
	C398.073822,985.439819 334.853607,909.600769 288.472351,820.273804 
	C257.545898,760.711609 235.780167,697.833862 221.988861,632.155457 
	C213.289459,590.726257 207.331573,548.893372 203.271622,506.792450 
	C198.873093,461.180542 195.900131,415.456726 195.898972,369.618195 
	C195.897827,324.807190 196.606491,279.996155 197.011322,235.185211 
	C197.017258,234.527618 197.123337,233.870926 197.226074,232.733505 
	C292.764893,230.462921 382.963898,205.103180 471.056763,169.083618 
M875.865906,894.355408 
	C895.933044,866.650146 913.983704,837.676514 929.790039,807.349243 
	C968.811951,732.478943 992.822449,652.760498 1005.822571,569.566772 
	C1014.631836,513.192139 1018.484558,456.375122 1019.707886,399.389893 
	C1020.347900,369.574341 1019.864014,339.734558 1019.882080,309.905731 
	C1019.889893,296.961487 1019.883301,284.017212 1019.883301,271.212097 
	C1017.111938,270.702026 1015.819824,270.397369 1014.510193,270.232880 
	C976.481079,265.457306 938.906616,258.262939 901.721985,249.008301 
	C806.965332,225.424942 717.182739,189.501694 632.841980,140.214661 
	C628.448425,137.647141 625.677917,138.927887 622.144531,140.998886 
	C555.953308,179.795502 486.094391,210.252777 412.832733,232.971039 
	C366.190186,247.434784 318.840942,258.851410 270.542633,266.223846 
	C259.737122,267.873199 248.943756,269.601868 238.149734,271.293243 
	C237.836075,276.899567 237.290512,282.036377 237.301758,287.171936 
	C237.400345,332.149017 237.000076,377.138092 237.920380,422.099640 
	C239.036087,476.608795 244.798920,530.728394 253.932617,584.507874 
	C265.510376,652.678101 284.876038,718.420776 314.035645,781.184814 
	C344.752991,847.302002 385.223053,906.883484 434.727112,960.333923 
	C490.399139,1020.444031 555.280396,1069.136841 624.173401,1112.860474 
	C628.126953,1115.369629 630.867920,1115.058594 634.393860,1112.583618 
	C660.288391,1094.407104 686.712341,1076.950684 712.118530,1058.119507 
	C774.577698,1011.824158 831.156372,959.490845 875.865906,894.355408 
z"/>
<path fill="#17191D" opacity="1.000000" stroke="none" 
	d="
M875.656250,894.646790 
	C831.156372,959.490845 774.577698,1011.824158 712.118530,1058.119507 
	C686.712341,1076.950684 660.288391,1094.407104 634.393860,1112.583618 
	C630.867920,1115.058594 628.126953,1115.369629 624.173401,1112.860474 
	C555.280396,1069.136841 490.399139,1020.444031 434.727112,960.333923 
	C385.223053,906.883484 344.752991,847.302002 314.035645,781.184814 
	C284.876038,718.420776 265.510376,652.678101 253.932617,584.507874 
	C244.798920,530.728394 239.036087,476.608795 237.920380,422.099640 
	C237.000076,377.138092 237.400345,332.149017 237.301758,287.171936 
	C237.290512,282.036377 237.836075,276.899567 238.149734,271.293243 
	C248.943756,269.601868 259.737122,267.873199 270.542633,266.223846 
	C318.840942,258.851410 366.190186,247.434784 412.832733,232.971039 
	C486.094391,210.252777 555.953308,179.795502 622.144531,140.998886 
	C625.677917,138.927887 628.448425,137.647141 632.841980,140.214661 
	C717.182739,189.501694 806.965332,225.424942 901.721985,249.008301 
	C938.906616,258.262939 976.481079,265.457306 1014.510193,270.232880 
	C1015.819824,270.397369 1017.111938,270.702026 1019.883301,271.212097 
	C1019.883301,284.017212 1019.889893,296.961487 1019.882080,309.905731 
	C1019.864014,339.734558 1020.347900,369.574341 1019.707886,399.389893 
	C1018.484558,456.375122 1014.631836,513.192139 1005.822571,569.566772 
	C992.822449,652.760498 968.811951,732.478943 929.790039,807.349243 
	C913.983704,837.676514 895.933044,866.650146 875.656250,894.646790 
M781.334900,403.909302 
	C749.332764,468.227417 717.330688,532.545532 685.021973,597.479736 
	C684.061401,595.634033 683.516357,594.626526 683.006653,593.601501 
	C667.891602,563.202820 652.864319,532.759827 637.572388,502.450317 
	C635.410583,498.165497 635.364746,494.860321 637.545898,490.528687 
	C656.183289,453.515869 674.563110,416.373322 693.008545,379.263916 
	C693.780823,377.710144 694.439758,376.100006 695.254822,374.286133 
	C649.832336,374.286133 605.108643,374.286133 559.729553,374.286133 
	C561.726196,378.358459 563.457092,381.915894 565.210999,385.461914 
	C582.842590,421.109558 600.458374,456.765076 618.151733,492.382019 
	C619.495483,495.086945 619.765015,497.209229 618.279114,500.162659 
	C609.153198,518.300720 600.356995,536.604370 591.401245,554.828430 
	C584.528198,568.814453 577.582031,582.764465 570.298462,597.477661 
	C568.306946,593.572388 566.612427,590.359314 565.014099,587.099060 
	C530.927185,517.570007 496.831573,448.045258 462.835297,378.471924 
	C461.268311,375.264984 459.588348,373.866486 455.775848,373.887390 
	C422.614929,374.069366 389.452576,373.991486 356.290649,374.009979 
	C354.560608,374.010925 352.830627,374.185577 350.446991,374.314789 
	C351.850800,376.239288 352.724243,377.614227 353.770050,378.842468 
	C362.733978,389.370392 371.737976,399.864227 380.711456,410.384064 
	C385.780457,416.326569 392.037140,421.643463 395.645691,428.374969 
	C408.924438,453.145386 421.341766,478.378174 434.043762,503.457001 
	C470.609283,575.651733 507.151917,647.858154 543.721130,720.051086 
	C545.404175,723.373718 547.257935,726.609985 549.288086,730.359009 
	C575.368042,677.130066 601.090759,624.630310 627.122925,571.498901 
	C653.567139,625.007996 679.539551,677.562256 705.931702,730.965942 
	C707.449951,728.116150 708.405029,726.395935 709.294861,724.642639 
	C723.846863,695.971069 738.436462,667.318481 752.927002,638.615845 
	C786.082703,572.941650 819.172363,507.234131 852.344604,441.568298 
	C855.260193,435.796753 857.824890,429.609039 861.859619,424.685699 
	C875.160706,408.454834 889.067139,392.720184 902.716797,376.774231 
	C903.277893,376.118774 903.593811,375.253448 904.136230,374.285492 
	C903.190491,374.152344 902.716370,374.027405 902.242249,374.027222 
	C867.914062,374.012939 833.585693,373.964752 799.258484,374.140717 
	C797.643066,374.148956 795.334656,375.790070 794.544312,377.297485 
	C790.062378,385.845612 785.944824,394.584778 781.334900,403.909302 
M436.774200,727.735046 
	C442.117676,737.898315 447.463440,748.060303 452.804260,758.224976 
	C474.491943,799.501404 496.218506,840.757507 517.784241,882.097534 
	C519.424133,885.241089 521.289429,886.258118 524.706665,886.194763 
	C535.702393,885.990967 546.708923,885.929199 557.700989,886.213806 
	C561.445862,886.310791 563.209595,885.039612 564.826172,881.749146 
	C584.783020,841.127502 604.898865,800.583862 624.981384,760.023865 
	C625.649353,758.674683 626.397583,757.365112 627.427795,755.440369 
	C648.429382,798.265930 669.041809,840.224792 689.530029,882.244263 
	C690.870789,884.994019 692.270752,886.241089 695.473511,886.186157 
	C707.136169,885.985840 718.805054,886.023499 730.469604,886.150696 
	C733.286377,886.181396 734.908264,885.452942 736.274353,882.752075 
	C743.190369,869.078491 750.325623,855.514771 757.470581,841.958191 
	C789.371094,781.431580 821.317261,720.929138 853.156677,660.370544 
	C854.339539,658.120728 855.178284,655.380554 855.183838,652.866699 
	C855.300049,600.536743 855.274902,548.206482 855.258972,495.876312 
	C855.258606,494.532440 855.047119,493.188660 854.828613,490.590271 
	C805.063477,590.100159 755.918091,688.370850 706.772705,786.641541 
	C706.231140,786.530518 705.689575,786.419556 705.148010,786.308533 
	C679.282532,733.624573 653.417114,680.940613 627.162109,627.463135 
	C600.891785,680.978271 574.973267,733.776672 548.727356,787.242065 
	C498.896118,687.882507 449.487061,589.364807 400.078033,490.847137 
	C399.570953,491.032745 399.063904,491.218353 398.556854,491.403961 
	C398.513306,492.180450 398.432037,492.956940 398.431580,493.733459 
	C398.399841,546.897156 398.355530,600.060852 398.420959,653.224487 
	C398.423462,655.266479 399.138672,657.492798 400.110413,659.320251 
	C412.142395,681.947083 424.283844,704.515625 436.774200,727.735046 
z"/>
<path fill="#F0F3F7" opacity="1.000000" stroke="none" 
	d="
M781.519104,403.584106 
	C785.944824,394.584778 790.062378,385.845612 794.544312,377.297485 
	C795.334656,375.790070 797.643066,374.148956 799.258484,374.140717 
	C833.585693,373.964752 867.914062,374.012939 902.242249,374.027222 
	C902.716370,374.027405 903.190491,374.152344 904.136230,374.285492 
	C903.593811,375.253448 903.277893,376.118774 902.716797,376.774231 
	C889.067139,392.720184 875.160706,408.454834 861.859619,424.685699 
	C857.824890,429.609039 855.260193,435.796753 852.344604,441.568298 
	C819.172363,507.234131 786.082703,572.941650 752.927002,638.615845 
	C738.436462,667.318481 723.846863,695.971069 709.294861,724.642639 
	C708.405029,726.395935 707.449951,728.116150 705.931702,730.965942 
	C679.539551,677.562256 653.567139,625.007996 627.122925,571.498901 
	C601.090759,624.630310 575.368042,677.130066 549.288086,730.359009 
	C547.257935,726.609985 545.404175,723.373718 543.721130,720.051086 
	C507.151917,647.858154 470.609283,575.651733 434.043762,503.457001 
	C421.341766,478.378174 408.924438,453.145386 395.645691,428.374969 
	C392.037140,421.643463 385.780457,416.326569 380.711456,410.384064 
	C371.737976,399.864227 362.733978,389.370392 353.770050,378.842468 
	C352.724243,377.614227 351.850800,376.239288 350.446991,374.314789 
	C352.830627,374.185577 354.560608,374.010925 356.290649,374.009979 
	C389.452576,373.991486 422.614929,374.069366 455.775848,373.887390 
	C459.588348,373.866486 461.268311,375.264984 462.835297,378.471924 
	C496.831573,448.045258 530.927185,517.570007 565.014099,587.099060 
	C566.612427,590.359314 568.306946,593.572388 570.298462,597.477661 
	C577.582031,582.764465 584.528198,568.814453 591.401245,554.828430 
	C600.356995,536.604370 609.153198,518.300720 618.279114,500.162659 
	C619.765015,497.209229 619.495483,495.086945 618.151733,492.382019 
	C600.458374,456.765076 582.842590,421.109558 565.210999,385.461914 
	C563.457092,381.915894 561.726196,378.358459 559.729553,374.286133 
	C605.108643,374.286133 649.832336,374.286133 695.254822,374.286133 
	C694.439758,376.100006 693.780823,377.710144 693.008545,379.263916 
	C674.563110,416.373322 656.183289,453.515869 637.545898,490.528687 
	C635.364746,494.860321 635.410583,498.165497 637.572388,502.450317 
	C652.864319,532.759827 667.891602,563.202820 683.006653,593.601501 
	C683.516357,594.626526 684.061401,595.634033 685.021973,597.479736 
	C717.330688,532.545532 749.332764,468.227417 781.519104,403.584106 
z"/>
<path fill="#F0F3F7" opacity="1.000000" stroke="none" 
	d="
M436.585632,727.417114 
	C424.283844,704.515625 412.142395,681.947083 400.110413,659.320251 
	C399.138672,657.492798 398.423462,655.266479 398.420959,653.224487 
	C398.355530,600.060852 398.399841,546.897156 398.431580,493.733459 
	C398.432037,492.956940 398.513306,492.180450 398.556854,491.403961 
	C399.063904,491.218353 399.570953,491.032745 400.078033,490.847137 
	C449.487061,589.364807 498.896118,687.882507 548.727356,787.242065 
	C574.973267,733.776672 600.891785,680.978271 627.162109,627.463135 
	C653.417114,680.940613 679.282532,733.624573 705.148010,786.308533 
	C705.689575,786.419556 706.231140,786.530518 706.772705,786.641541 
	C755.918091,688.370850 805.063477,590.100159 854.828613,490.590271 
	C855.047119,493.188660 855.258606,494.532440 855.258972,495.876312 
	C855.274902,548.206482 855.300049,600.536743 855.183838,652.866699 
	C855.178284,655.380554 854.339539,658.120728 853.156677,660.370544 
	C821.317261,720.929138 789.371094,781.431580 757.470581,841.958191 
	C750.325623,855.514771 743.190369,869.078491 736.274353,882.752075 
	C734.908264,885.452942 733.286377,886.181396 730.469604,886.150696 
	C718.805054,886.023499 707.136169,885.985840 695.473511,886.186157 
	C692.270752,886.241089 690.870789,884.994019 689.530029,882.244263 
	C669.041809,840.224792 648.429382,798.265930 627.427795,755.440369 
	C626.397583,757.365112 625.649353,758.674683 624.981384,760.023865 
	C604.898865,800.583862 584.783020,841.127502 564.826172,881.749146 
	C563.209595,885.039612 561.445862,886.310791 557.700989,886.213806 
	C546.708923,885.929199 535.702393,885.990967 524.706665,886.194763 
	C521.289429,886.258118 519.424133,885.241089 517.784241,882.097534 
	C496.218506,840.757507 474.491943,799.501404 452.804260,758.224976 
	C447.463440,748.060303 442.117676,737.898315 436.585632,727.417114 
z"/>
</svg>